<svg width="32" height="26" viewBox="0 0 32 26" fill="none" xmlns="http://www.w3.org/2000/svg">
<path fill-rule="evenodd" clip-rule="evenodd" d="M31 2C31 1.44772 30.5523 1 30 1H2C1.44772 1 1 1.44771 1 2V4.54054C1 5.09282 1.44772 5.54054 2 5.54054H2.30435V24C2.30435 24.5523 2.75206 25 3.30435 25H28.6957C29.2479 25 29.6957 24.5523 29.6957 24V5.54054H30C30.5523 5.54054 31 5.09283 31 4.54054V2Z" fill="white" fill-opacity="0.5"/>
<path d="M2.30435 5.54054H2C1.44772 5.54054 1 5.09282 1 4.54054V2C1 1.44771 1.44772 1 2 1H30C30.5523 1 31 1.44772 31 2V4.54054C31 5.09283 30.5523 5.54054 30 5.54054H29.6957M2.30435 5.54054V24C2.30435 24.5523 2.75206 25 3.30435 25H28.6957C29.2479 25 29.6957 24.5523 29.6957 24V5.54054M2.30435 5.54054H17.913M29.6957 5.54054H23.8261M17.913 5.54054V13.5044C17.913 13.6879 18.1395 13.7745 18.262 13.6379L20.7207 10.8958C20.8001 10.8072 20.939 10.8072 21.0185 10.8958L23.4772 13.6379C23.5997 13.7745 23.8261 13.6879 23.8261 13.5044V5.54054M17.913 5.54054H23.8261" stroke="white" stroke-width="2"/>
</svg>
