<svg width="34" height="29" viewBox="0 0 34 29" fill="none" xmlns="http://www.w3.org/2000/svg">
<path d="M28 1.5H6C3.23858 1.5 1 3.73858 1 6.5V18.5C1 21.2614 3.23858 23.5 6 23.5H18C18.3148 23.5 18.6111 23.6482 18.8 23.9L20.8 26.5667C21.4 27.3667 22.6 27.3667 23.2 26.5667L25.2 23.9C25.3889 23.6482 25.6852 23.5 26 23.5H28C30.7614 23.5 33 21.2614 33 18.5V6.5C33 3.73858 30.7614 1.5 28 1.5Z" fill="white" fill-opacity="0.5" stroke="white" stroke-width="2"/>
<circle cx="17" cy="12.5" r="2" fill="white"/>
<circle cx="9" cy="12.5" r="2" fill="white"/>
<circle cx="25" cy="12.5" r="2" fill="white"/>
</svg>
